<svg id="svg" version="1.1" width="400" height="400" xmlns="http://www.w3.org/2000/svg" xmlns:xlink="http://www.w3.org/1999/xlink" ><g id="svgg"><path id="path0" d="M157.125 70.385 C 145.101 96.903,103.614 99.990,90.352 75.353 C 88.314 71.567,84.805 70.087,82.468 72.026 C 81.195 73.083,81.004 76.686,81.231 95.371 L 81.500 117.466 93.500 118.715 C 192.559 129.022,255.608 204.095,262.968 320.500 C 264.233 340.507,262.458 339.000,284.757 339.000 C 308.134 339.000,309.516 338.018,301.991 326.748 C 286.627 303.742,295.382 268.937,320.528 253.057 C 330.536 246.736,329.968 244.249,317.743 240.862 C 266.348 226.619,259.418 152.878,305.731 113.028 C 315.926 104.255,313.309 97.454,302.332 104.196 C 279.248 118.375,260.937 123.465,233.000 123.471 C 192.184 123.480,170.271 107.102,167.429 74.462 C 166.288 61.367,161.986 59.664,157.125 70.385 " stroke="none" fill="#000000" fill-rule="evenodd" data-darkreader-inline-fill="" data-darkreader-inline-stroke="" ></path></g></svg>