<svg xmlns="http://www.w3.org/2000/svg" viewBox="0 0 24 24">
  <defs>
    <mask id="cut">
      <rect width="24" height="24" fill="#fff"/>
      <path fill="#000" d="M11.9 17.2c-1.9 0-3.2-.9-3.8-2.5l1.8-.8c.4.9 1 1.4 1.9 1.4 1 0 1.6-.5 1.6-1.3 0-.9-.6-1.3-1.8-1.3h-.9v-1.8h.9c1 0 1.5-.4 1.5-1.2 0-.7-.5-1.1-1.3-1.1-.8 0-1.3.4-1.7 1.2l-1.7-.8c.7-1.5 1.8-2.3 3.5-2.3 2 0 3.3 1.1 3.3 2.8 0 .9-.5 1.7-1.3 2.1 1 .4 1.6 1.2 1.6 2.4 0 1.9-1.4 3.2-3.6 3.2Z"/>
    </mask>
  </defs>
  <circle cx="12" cy="12" r="10" fill="#f08c00" mask="url(#cut)"/>
</svg>
